<svg xmlns="http://www.w3.org/2000/svg" viewBox="0 0 1280 400" width="600" height="188">
	<style>
		tspan { white-space:pre }
		.shp0 { fill: #7159c1 } 
	</style>
	<path id="Meet " fill="#ffffff" d="M166.68 221.36Q163.08 156.8 149.88 116.24Q139.8 85.52 111.96 80.96Q106.2 80 101.88 80Q79.08 80 69 102.32Q61.08 119.84 62.04 144.56Q63 172.4 64.44 185.12Q65.88 199.04 64.44 248Q62.76 298.64 73.8 310.64Q82.2 320 91.08 320Q93 320 95.88 319.28Q113.16 314.96 115.56 297.92Q116.04 294.8 114.36 266.96Q112.92 242.24 110.04 197.12Q106.92 156.32 110.28 144.32Q120.6 165.92 126.84 195.44Q133.08 224.72 136.44 241.52Q141.72 268.16 144.36 288.08Q146.28 301.76 158.28 307.28Q167.16 311.6 173.16 311.6Q178.68 311.6 189 306.32Q198.6 301.52 210.12 208.64Q214.44 174.32 222.36 146.96Q221.4 195.44 222.12 212.24Q223.32 239.12 224.28 251.84Q226.44 277.04 228.36 285.68Q233.16 306.8 245.4 313.04Q250.92 315.92 255.24 315.92Q273.24 315.92 274.44 283.52Q275.16 266.72 273.48 230.48Q272.76 208.64 270.84 164.96Q268.92 121.28 259.56 103.28Q248.04 80.96 230.76 80.96Q221.4 80.96 210.36 86Q195.24 92.96 181.56 147.68Q176.28 168.08 166.68 221.36ZM443.88 156.56Q443.4 115.76 398.76 105.68Q383.64 102.32 370.44 102.32Q345.24 102.32 329.4 115.76Q297.96 137.6 297.96 191.84Q297.96 205.04 299.4 217.76Q307.8 292.88 336.6 308.72Q354.12 318.32 371.88 318.32Q383.4 318.32 395.16 314.48Q425.64 304.64 423.96 283.52Q422.76 266.48 410.76 266.48Q407.16 266.48 404.04 267.44Q386.28 272.96 368.52 271.04Q353.64 269.6 345.24 248.72Q339.96 235.52 339.96 224.72Q339.96 220.64 340.68 216.8Q364.2 227.12 383.4 227.12Q401.88 227.12 416.04 217.04Q444.36 196.88 443.88 156.56ZM369.96 148.16Q375 146 378.6 146Q388.44 146 393.48 158.48Q396.84 166.64 396.84 172.4Q396.84 178.4 393 181.76Q385.8 188.24 373.8 187.52Q365.88 187.04 359.88 181.76Q354.12 176.24 353.88 168.32Q353.4 155.12 369.96 148.16ZM605.64 156.56Q605.16 115.76 560.52 105.68Q545.4 102.32 532.2 102.32Q507 102.32 491.16 115.76Q459.72 137.6 459.72 191.84Q459.72 205.04 461.16 217.76Q469.56 292.88 498.36 308.72Q515.88 318.32 533.64 318.32Q545.16 318.32 556.92 314.48Q587.4 304.64 585.72 283.52Q584.52 266.48 572.52 266.48Q568.92 266.48 565.8 267.44Q548.04 272.96 530.28 271.04Q515.4 269.6 507 248.72Q501.72 235.52 501.72 224.72Q501.72 220.64 502.44 216.8Q525.96 227.12 545.16 227.12Q563.64 227.12 577.8 217.04Q606.12 196.88 605.64 156.56ZM531.72 148.16Q536.76 146 540.36 146Q550.2 146 555.24 158.48Q558.6 166.64 558.6 172.4Q558.6 178.4 554.76 181.76Q547.56 188.24 535.56 187.52Q527.64 187.04 521.64 181.76Q515.88 176.24 515.64 168.32Q515.16 155.12 531.72 148.16ZM766.44 184.88Q762.84 184.4 753.48 183.44Q746.52 182.72 740.76 183.44Q739.32 183.68 737.4 183.68Q733.8 183.68 728.04 182.72L729.72 148.16Q730.2 139.04 731.16 123.2Q733.32 89.12 708.84 86.72Q691.32 85.04 685.56 97.76Q681.96 105.68 682.2 125.84Q682.44 141.2 682.92 183.44Q664.2 185.12 653.16 184.16Q640.2 182.96 628.44 191.36Q620.76 196.88 620.76 206.24Q620.76 211.28 622.44 216.56Q629.4 237.68 655.08 237.68Q667.8 237.68 685.56 233.36Q686.04 279.2 686.76 293.6Q687.48 306.56 688.68 309.92Q691.56 317.36 700.68 319.76Q703.32 320.48 707.16 320.48Q716.76 320.48 722.52 313.04Q727.8 306.32 727.8 296.48Q727.8 286.64 728.76 262.64Q729.48 242.24 729.48 228.56Q745.56 229.52 756.36 229.52Q773.16 229.52 776.76 227.36Q784.92 222.8 787.56 219.68Q791.4 215.12 791.64 206.96Q791.88 197.12 786.84 193.52Q774.12 184.88 766.44 184.88Z" />
	<path id="Shape 1" class="shp0" d="M1009 400C898.4 400 809 310.6 809 200C809 89.4 898.4 0 1009 0C1119.6 0 1209 89.4 1209 200C1209 310.6 1119.6 400 1009 400Z" />
	<path id="UP " fill="#ffffff" d="M980.18 276.58Q959.31 292.13 923.52 292.13Q887.74 292.13 866.65 276.58Q845.78 261.03 845.78 228.02L845.78 146.65Q845.78 144.31 847.48 142.6Q849.19 140.9 851.53 140.9L896.05 140.9Q898.39 140.9 900.1 142.6Q901.8 144.31 901.8 146.65L901.8 231.43Q901.8 240.16 907.55 244.84Q913.51 249.53 923.52 249.53Q933.54 249.53 939.29 244.84Q945.25 240.16 945.25 231.43L945.25 146.65Q945.25 144.31 946.96 142.6Q948.66 140.9 951 140.9L995.52 140.9Q997.86 140.9 999.57 142.6Q1001.27 144.31 1001.27 146.65L1001.27 228.02Q1001.27 261.03 980.18 276.58ZM1046.64 140.9L1126.3 140.9Q1156.55 140.9 1174.23 155.6Q1191.9 170.29 1191.9 193.3Q1191.9 216.3 1176.99 229.93Q1162.09 243.35 1126.3 243.35L1098.18 243.35L1098.18 284.25Q1098.18 286.59 1096.48 288.3Q1094.78 290 1092.43 290L1046.64 290Q1044.3 290 1042.59 288.3Q1040.89 286.59 1040.89 284.25L1040.89 146.65Q1040.89 144.31 1042.59 142.6Q1044.3 140.9 1046.64 140.9ZM1125.45 180.52L1098.4 180.52L1098.4 203.95L1125.45 203.95Q1130.35 203.95 1133.33 200.97Q1136.53 197.98 1136.53 192.66Q1136.53 187.33 1133.54 183.93Q1130.56 180.52 1125.45 180.52Z" />
</svg>